<svg width="36" height="36" viewBox="0 0 36 36" fill="none" xmlns="http://www.w3.org/2000/svg">
<path d="M17.9251 0.850262C15.5712 0.850262 13.2403 1.31391 11.0655 2.21473C8.8907 3.11555 6.91465 4.43591 5.25015 6.10041C1.88854 9.46202 0 14.0214 0 18.7754C0 26.6983 5.14451 33.4202 12.2608 35.8043C13.157 35.9477 13.4438 35.392 13.4438 34.908C13.4438 34.4957 13.4438 33.3664 13.4438 31.8787C8.47859 32.9542 7.421 29.4767 7.421 29.4767C6.59645 27.3974 5.43131 26.8417 5.43131 26.8417C3.80013 25.7303 5.55679 25.7662 5.55679 25.7662C7.3493 25.8917 8.29934 27.6125 8.29934 27.6125C9.85882 30.3371 12.4938 29.5305 13.5155 29.1003C13.6769 27.9351 14.1429 27.1464 14.6448 26.6983C10.6655 26.2502 6.4889 24.7086 6.4889 17.8791C6.4889 15.8894 7.17005 14.2941 8.33519 13.0214C8.15594 12.5733 7.52855 10.7091 8.51444 8.28919C8.51444 8.28919 10.0201 7.80521 13.4438 10.1176C14.8599 9.7232 16.4015 9.52602 17.9251 9.52602C19.4488 9.52602 20.9903 9.7232 22.4064 10.1176C25.8301 7.80521 27.3358 8.28919 27.3358 8.28919C28.3217 10.7091 27.6943 12.5733 27.5151 13.0214C28.6802 14.2941 29.3614 15.8894 29.3614 17.8791C29.3614 24.7265 25.1669 26.2322 21.1696 26.6804C21.8149 27.2361 22.4064 28.3295 22.4064 29.9965V34.908C22.4064 35.392 22.6932 35.9656 23.6074 35.8043C30.7237 33.4023 35.8503 26.6983 35.8503 18.7754C35.8503 16.4214 35.3866 14.0905 34.4858 11.9157C33.585 9.74096 32.2646 7.76491 30.6001 6.10041C28.9356 4.43591 26.9596 3.11555 24.7848 2.21473C22.61 1.31391 20.2791 0.850262 17.9251 0.850262Z" fill="black"/>
</svg>
