<svg width="36" height="36" viewBox="0 0 36 36" fill="none" xmlns="http://www.w3.org/2000/svg">
<path d="M25.8694 0.115324C27.6882 0.198331 28.9454 0.465584 30.109 0.917785C31.273 1.37017 32.1546 1.94365 33.0307 2.81973C33.9066 3.69578 34.4801 4.57722 34.9326 5.74144C35.3847 6.90511 35.6519 8.16218 35.7349 9.9809C35.8378 12.2365 35.8503 13.0315 35.8503 17.9251C35.8503 22.8188 35.8378 23.6138 35.7349 25.8694C35.6519 27.6881 35.3847 28.9451 34.9325 30.1092C34.48 31.2731 33.9065 32.1546 33.0307 33.0305C32.1547 33.9066 31.2731 34.4801 30.1088 34.9325C28.9449 35.3847 27.688 35.6519 25.8694 35.7349C23.6144 35.8378 22.8195 35.8503 17.9251 35.8503C13.0307 35.8503 12.2359 35.8378 9.9809 35.7349C8.1623 35.6519 6.90522 35.3847 5.74116 34.9325C4.57714 34.48 3.69556 33.9065 2.81966 33.0305C1.94364 32.1545 1.37011 31.2729 0.917644 30.1088C0.46552 28.9451 0.198326 27.6881 0.115324 25.8694C0.0124773 23.6153 0 22.8209 0 17.9251C0 13.0294 0.0124773 12.235 0.115325 9.9808C0.198326 8.16218 0.46552 6.90511 0.917711 5.74127C1.37006 4.57733 1.94359 3.6958 2.81958 2.81981C3.69556 1.94374 4.57714 1.37023 5.7412 0.917789C6.9047 0.4656 8.16205 0.198333 9.98077 0.115324C12.235 0.0124762 13.0294 0 17.9251 0C22.8209 0 23.6153 0.0124764 25.8694 0.115324ZM17.9251 3.98336C13.0847 3.98336 12.3445 3.99499 10.1624 4.09455C8.77756 4.15775 7.94609 4.33449 7.18421 4.63059C6.53368 4.88343 6.12032 5.15234 5.63632 5.6364C5.15222 6.12049 4.8833 6.53384 4.6306 7.18405C4.33445 7.9463 4.15775 8.77761 4.09455 10.1624C3.99499 12.3444 3.98336 13.0848 3.98336 17.9251C3.98336 22.7655 3.99499 23.5059 4.09455 25.6879C4.15775 27.0727 4.33445 27.904 4.63052 28.666C4.88332 29.3164 5.15228 29.7298 5.6364 30.2139C6.12032 30.6979 6.53368 30.9668 7.18398 31.2196C7.94638 31.5158 8.77766 31.6925 10.1624 31.7556C12.3453 31.8553 13.0861 31.8669 17.9251 31.8669C22.7642 31.8669 23.5049 31.8553 25.6879 31.7556C27.0726 31.6925 27.9038 31.5158 28.666 31.2196C29.3166 30.9668 29.7299 30.6979 30.2139 30.2139C30.6979 29.7299 30.9669 29.3165 31.2197 28.6662C31.5158 27.904 31.6925 27.0726 31.7557 25.6879C31.8553 23.5044 31.8669 22.7634 31.8669 17.9251C31.8669 13.0868 31.8553 12.3458 31.7557 10.1624C31.6925 8.77761 31.5158 7.9463 31.2198 7.18436C30.9669 6.53377 30.6979 6.12037 30.2139 5.63632C29.73 5.15235 29.3166 4.88344 28.666 4.63061C27.9041 4.33447 27.0727 4.15775 25.6878 4.09455C23.5058 3.99499 22.7655 3.98336 17.9251 3.98336ZM17.9251 27.2196C12.7919 27.2196 8.63062 23.0583 8.63062 17.9251C8.63062 12.7919 12.7919 8.63062 17.9251 8.63062C23.0583 8.63062 27.2196 12.7919 27.2196 17.9251C27.2196 23.0583 23.0583 27.2196 17.9251 27.2196ZM17.9251 23.2363C20.8584 23.2363 23.2363 20.8584 23.2363 17.9251C23.2363 14.9919 20.8584 12.614 17.9251 12.614C14.9919 12.614 12.614 14.9919 12.614 17.9251C12.614 20.8584 14.9919 23.2363 17.9251 23.2363ZM27.2196 10.6223C26.1197 10.6223 25.228 9.73059 25.228 8.63062C25.228 7.53064 26.1197 6.63894 27.2196 6.63894C28.3196 6.63894 29.2113 7.53064 29.2113 8.63062C29.2113 9.73059 28.3196 10.6223 27.2196 10.6223Z" fill="black"/>
</svg>
