<svg width="21" height="21" viewBox="0 0 21 21" fill="none" xmlns="http://www.w3.org/2000/svg">
<path d="M0.894038 0.563842L19.9302 9.94398C20.2373 10.0953 20.3636 10.4669 20.2122 10.774C20.1519 10.8965 20.0527 10.9957 19.9302 11.0561L0.894429 20.436C0.587332 20.5873 0.215708 20.4611 0.0643852 20.154C-0.00178423 20.0197 -0.0171229 19.866 0.0212024 19.7213L1.90722 12.5991C1.96959 12.3636 2.16417 12.1864 2.4045 12.1464L10.9354 10.724C11.0399 10.7065 11.1263 10.6376 11.1678 10.5438L11.1901 10.4692C11.2143 10.3245 11.1339 10.1865 11.0041 10.1323L10.9354 10.1125L2.35634 8.68267C2.1159 8.6426 1.92127 8.46534 1.85896 8.22969L0.0207726 1.27844C-0.0667938 0.947476 0.130522 0.608187 0.461489 0.520621C0.606162 0.482344 0.759799 0.497695 0.894038 0.563842Z" fill="white"/>
</svg>
